<?xml version="1.0" standalone="no"?>
<!DOCTYPE svg PUBLIC "-//W3C//DTD SVG 20010904//EN"
 "http://www.w3.org/TR/2001/REC-SVG-20010904/DTD/svg10.dtd">
<svg version="1.0" xmlns="http://www.w3.org/2000/svg"
 width="32.000000pt" height="32.000000pt" viewBox="0 0 32.000000 32.000000"
 preserveAspectRatio="xMidYMid meet">

<symbol id="github" fill-rule="evenodd" clip-rule="evenodd" stroke-linejoin="round" stroke-miterlimit="1.414"><path d="M0 160 l0 -160 160 0 160 0 0 160 0 160 -160 0 -160 0 0 -160z m212
69 c11 -6 26 -26 34 -45 12 -29 12 -39 0 -68 -17 -41 -42 -56 -91 -56 -77 0
-115 95 -60 154 26 28 79 35 117 15z"/>
<path d="M124 181 c-2 -2 -4 -16 -3 -30 0 -14 3 -20 6 -13 8 19 63 15 63 -5 0
-12 3 -14 11 -6 5 5 7 21 4 34 -5 20 -12 24 -41 24 -20 0 -38 -2 -40 -4z"/>
</symbol>
</svg>
